
<svg width="87px" height="65px" viewBox="0 0 87 65" version="1.1" xmlns="http://www.w3.org/2000/svg" xmlns:xlink="http://www.w3.org/1999/xlink">
    <!-- Generator: Sketch 44.1 (41455) - http://www.bohemiancoding.com/sketch -->
    <desc>Created with Sketch.</desc>
    <defs></defs>
    <g id="Page-1" stroke="none" stroke-width="1" fill="none" fill-rule="evenodd">
        <g id="LogoType-Asset" transform="translate(-481.000000, -12.000000)" fill="#A34170">
            <g id="innerText" transform="translate(63.409371, 6.511364)">
                <g id="&lt;3" transform="translate(417.704998, 6.138528)">
                    <path d="M32.0211507,58.8962032 L2.65002627,38.7123237 C1.81575457,38.1109388 1.16552314,37.3028399 0.699312487,36.2880029 C0.233101831,35.2731659 0,34.1267932 0,32.8488503 L0,31.9467774 C0,30.6688345 0.233101831,29.5224618 0.699312487,28.5076248 C1.16552314,27.4927878 1.81575457,26.6846889 2.65002627,26.083304 L32.0211507,5.8994245 C32.4137492,5.67390516 32.8063417,5.56114719 33.1989402,5.56114719 C34.0332119,5.56114719 34.7325174,5.99338609 35.2968776,6.85787688 C35.8612379,7.72236766 36.1434138,8.79356843 36.1434138,10.0715113 C36.1434138,10.9735887 35.959386,11.8192735 35.591325,12.6085912 C35.2232639,13.3979088 34.7447918,13.9804917 34.1558941,14.3563573 L7.65563143,32.3978139 L34.1558941,50.4392704 C34.7447918,50.815136 35.2232639,51.3977189 35.591325,52.1870365 C35.959386,52.9763542 36.1434138,53.822039 36.1434138,54.7241164 C36.1434138,56.0020593 35.8612379,57.07326 35.2968776,57.9377508 C34.7325174,58.8022416 34.0332119,59.2344805 33.1989402,59.2344805 C32.8063417,59.2344805 32.4137492,59.1217225 32.0211507,58.8962032 Z" id="&lt;"></path>
                    <path d="M44.5585924,59.8664502 C43.8480199,59.5725094 43.2854918,59.1463015 42.8709912,58.5878139 C42.4564906,58.0293262 42.2492434,57.3385755 42.2492434,56.5155411 C42.2492434,55.5161422 42.5897209,54.6490296 43.2706862,53.9141775 C43.9516515,53.1793253 44.7954436,52.8119048 45.802088,52.8119048 C46.3350173,52.8119048 46.8975454,52.9294793 47.4896891,53.164632 C51.753124,54.869489 56.4605959,55.7219048 61.6122463,55.7219048 C66.2309674,55.7219048 70.124254,54.9723668 73.2922229,53.4732684 C76.4601918,51.97417 78.0441525,49.4610133 78.0441525,45.9337229 C78.0441525,38.5264132 71.5010625,34.8228139 58.4146862,34.8228139 L56.9935484,34.8228139 C55.9869041,34.8228139 55.1135052,34.4553933 54.3733255,33.7205411 C53.6331459,32.985689 53.2630616,32.1185764 53.2630616,31.1191775 C53.2630616,30.1197786 53.6331459,29.252666 54.3733255,28.5178139 C55.1135052,27.7829617 55.9869041,27.4155411 56.9935484,27.4155411 L57.5264751,27.4155411 C63.4479123,27.4155411 67.9777438,26.5190349 71.1161056,24.7259957 C74.2544673,22.9329564 75.8236246,20.2728315 75.8236246,16.7455411 C75.8236246,13.9237088 74.639355,11.6897918 72.2707801,10.0437229 C69.9022052,8.39765411 66.4086096,7.57463203 61.7898886,7.57463203 C56.8158813,7.57463203 52.2268363,8.54462233 48.0226158,10.484632 C47.4304721,10.7197847 46.8975508,10.8373593 46.4238358,10.8373593 C45.5356202,10.8373593 44.7658449,10.528726 44.1144868,9.91145022 C43.4631287,9.2941744 43.1374545,8.5152428 43.1374545,7.57463203 C43.1374545,6.22250406 43.7295894,5.22312012 44.9138768,4.57645022 C50.5984566,1.57825341 56.4605915,0.0791774892 62.5004575,0.0791774892 C69.3101103,0.0791774892 74.5801104,1.46067883 78.3106158,4.22372294 C82.0411213,6.98676706 83.906346,10.8961219 83.906346,15.9519048 C83.906346,20.0082887 82.8849134,23.1974992 80.8420176,25.519632 C78.7991218,27.8417649 76.2381386,29.5612931 73.1589912,30.6782684 C76.5342104,31.4425146 79.5392947,33.0444683 82.1743343,35.4841775 C84.8093739,37.9238867 86.1268739,41.5540019 86.1268739,46.374632 C86.1268739,51.7831439 83.9803851,55.9717384 79.6873431,58.9405411 C75.3943011,61.9093438 69.8726437,63.3937229 63.1222053,63.3937229 C56.54941,63.3937229 50.3616009,62.2179771 44.5585924,59.8664502 Z" id="3"></path>
                </g>
            </g>
        </g>
    </g>
</svg>