
<svg width="629px" height="94px" viewBox="0 0 629 94" version="1.1" xmlns="http://www.w3.org/2000/svg" xmlns:xlink="http://www.w3.org/1999/xlink">
    <!-- Generator: Sketch 44.1 (41455) - http://www.bohemiancoding.com/sketch -->
    <desc>Created with Sketch.</desc>
    <defs></defs>
    <g id="Page-1" stroke="none" stroke-width="1" fill="none" fill-rule="evenodd">
        <g id="LogoType-Asset">
            <g id="innerText" transform="translate(63.409371, 6.511364)">
                <path d="M176.822136,62.0220996 C172.114593,59.4648141 168.413751,55.7906084 165.719497,50.9993723 C163.025243,46.2081362 161.678136,40.6086468 161.678136,34.2007359 C161.678136,27.7928251 163.025243,22.1933356 165.719497,17.4020996 C168.413751,12.6108635 172.114593,8.93665781 176.822136,6.37937229 C181.529679,3.82208678 186.844089,2.5434632 192.765526,2.5434632 C196.792103,2.5434632 200.389322,3.01376153 203.557291,3.95437229 C206.72526,4.89498306 209.878378,6.24709075 213.01674,8.01073593 C214.319456,8.716194 214.970805,9.83315253 214.970805,11.361645 C214.970805,12.2434676 214.64513,13.0223992 213.993772,13.6984632 C213.342414,14.3745272 212.483819,14.7125541 211.41796,14.7125541 C210.825816,14.7125541 210.292895,14.5949795 209.81918,14.3598268 C207.213748,13.0076989 204.667568,11.9789213 202.180564,11.2734632 C199.693561,10.5680051 196.821707,10.2152814 193.564916,10.2152814 C188.47248,10.2152814 184.135092,11.2587558 180.552623,13.3457359 C176.970153,15.4327161 174.27594,18.2838997 172.469901,21.8993723 C170.663863,25.5148449 169.760857,29.6152585 169.760857,34.2007359 C169.760857,38.7862134 170.663863,42.8866269 172.469901,46.5020996 C174.27594,50.1175722 176.970153,52.9687558 180.552623,55.0557359 C184.135092,57.1427161 188.47248,58.1861905 193.564916,58.1861905 C196.821707,58.1861905 199.693561,57.8334667 202.180564,57.1280087 C204.667568,56.4225506 207.213748,55.393773 209.81918,54.041645 C210.292895,53.8064923 210.825816,53.6889177 211.41796,53.6889177 C212.483819,53.6889177 213.342414,54.0122478 213.993772,54.6589177 C214.64513,55.3055876 214.970805,56.0992161 214.970805,57.0398268 C214.970805,58.5683193 214.319456,59.6852779 213.01674,60.3907359 C209.878378,62.1543811 206.72526,63.5064888 203.557291,64.4470996 C200.389322,65.3877103 196.792103,65.8580087 192.765526,65.8580087 C186.844089,65.8580087 181.529679,64.5793851 176.822136,62.0220996 Z M232.935338,63.5652814 C230.537156,62.0367889 228.701538,59.9498401 227.428429,57.3043723 C226.15532,54.6589045 225.518775,51.7489336 225.518775,48.5743723 L225.518775,23.5307359 C225.518775,22.4137606 225.918466,21.473164 226.71786,20.7089177 C227.517254,19.9446715 228.479473,19.5625541 229.604546,19.5625541 C230.729619,19.5625541 231.677035,19.9446715 232.446821,20.7089177 C233.216608,21.473164 233.601496,22.4137606 233.601496,23.5307359 L233.601496,47.6925541 C233.601496,54.8647112 236.858238,58.4507359 243.371819,58.4507359 C246.332537,58.4507359 248.982341,57.6865011 251.321308,56.1580087 C253.660276,54.6295162 255.865978,52.571961 257.938481,49.9852814 L257.938481,23.5307359 C257.938481,22.4137606 258.338172,21.473164 259.137566,20.7089177 C259.93696,19.9446715 260.899179,19.5625541 262.024253,19.5625541 C263.149326,19.5625541 264.096741,19.9446715 264.866528,20.7089177 C265.636315,21.473164 266.021203,22.4137606 266.021203,23.5307359 L266.021203,61.3607359 C266.021203,62.4777112 265.636315,63.4330047 264.866528,64.226645 C264.096741,65.0202854 263.149326,65.4170996 262.024253,65.4170996 C260.899179,65.4170996 259.93696,65.0202854 259.137566,64.226645 C258.338172,63.4330047 257.938481,62.4777112 257.938481,61.3607359 L257.938481,57.7452814 C255.688335,60.2143846 253.260582,62.1837589 250.65515,63.6534632 C248.049718,65.1231675 244.970616,65.8580087 241.417754,65.8580087 C238.160964,65.8580087 235.33352,65.0937739 232.935338,63.5652814 Z M282.609008,84.5084632 C281.839222,83.7148229 281.454334,82.7595294 281.454334,81.6425541 L281.454334,23.5307359 C281.454334,22.4137606 281.839222,21.473164 282.609008,20.7089177 C283.378795,19.9446715 284.326211,19.5625541 285.451284,19.5625541 C286.576357,19.5625541 287.538576,19.9446715 288.33797,20.7089177 C289.137364,21.473164 289.537055,22.4137606 289.537055,23.5307359 L289.537055,25.8234632 C293.859705,21.3555621 298.922457,19.121645 304.725466,19.121645 C308.396757,19.121645 311.875549,20.0475449 315.161947,21.8993723 C318.448345,23.7511997 321.112951,26.4554151 323.155847,30.0120996 C325.198743,33.568784 326.220176,37.7279848 326.220176,42.4898268 C326.220176,47.2516688 325.198743,51.4108697 323.155847,54.9675541 C321.112951,58.5242386 318.448345,61.2284539 315.161947,63.0802814 C311.875549,64.9321088 308.396757,65.8580087 304.725466,65.8580087 C298.922457,65.8580087 293.859705,63.6240916 289.537055,59.1561905 L289.537055,81.6425541 C289.537055,82.8183176 289.152168,83.7883079 288.382381,84.5525541 C287.612594,85.3168004 286.635572,85.6989177 285.451284,85.6989177 C284.326211,85.6989177 283.378795,85.3021035 282.609008,84.5084632 Z M314.140504,54.2180087 C316.805151,51.4549645 318.137454,47.5456097 318.137454,42.4898268 C318.137454,37.434044 316.805151,33.5246891 314.140504,30.761645 C311.475857,27.9986009 307.952655,26.6170996 303.570791,26.6170996 C300.84693,26.6170996 298.285947,27.2196693 295.887765,28.4248268 C293.489583,29.6299844 291.372701,31.2319381 289.537055,33.2307359 L289.537055,51.7489177 C291.372701,53.7477156 293.489583,55.3496693 295.887765,56.5548268 C298.285947,57.7599844 300.84693,58.3625541 303.570791,58.3625541 C307.952655,58.3625541 311.475857,56.9810528 314.140504,54.2180087 Z M339.5216,9.50982684 C338.633384,8.62800425 338.189283,7.56983301 338.189283,6.33528139 L338.189283,5.98255411 C338.189283,4.74800249 338.633384,3.68983125 339.5216,2.80800866 C340.409816,1.92618607 341.475658,1.48528139 342.71916,1.48528139 L343.252087,1.48528139 C344.495589,1.48528139 345.561431,1.92618607 346.449647,2.80800866 C347.337863,3.68983125 347.781964,4.74800249 347.781964,5.98255411 L347.781964,6.33528139 C347.781964,7.56983301 347.337863,8.62800425 346.449647,9.50982684 C345.561431,10.3916494 344.495589,10.8325541 343.252087,10.8325541 L342.71916,10.8325541 C341.475658,10.8325541 340.409816,10.3916494 339.5216,9.50982684 Z M340.054527,64.2707359 C339.28474,63.5064897 338.899852,62.565893 338.899852,61.4489177 L338.899852,23.6189177 C338.899852,22.5019425 339.28474,21.546649 340.054527,20.7530087 C340.824314,19.9593683 341.771729,19.5625541 342.896802,19.5625541 C344.08109,19.5625541 345.058112,19.9446715 345.827899,20.7089177 C346.597686,21.473164 346.982574,22.4431543 346.982574,23.6189177 L346.982574,61.4489177 C346.982574,62.565893 346.582883,63.5064897 345.783489,64.2707359 C344.984095,65.0349822 344.021875,65.4170996 342.896802,65.4170996 C341.771729,65.4170996 340.824314,65.0349822 340.054527,64.2707359 Z M370.720479,63.0802814 C367.434081,61.2284539 364.769475,58.5242386 362.726579,54.9675541 C360.683683,51.4108697 359.66225,47.2516688 359.66225,42.4898268 C359.66225,37.7279848 360.683683,33.568784 362.726579,30.0120996 C364.769475,26.4554151 367.434081,23.7511997 370.720479,21.8993723 C374.006877,20.0475449 377.485669,19.121645 381.15696,19.121645 C386.959969,19.121645 392.022721,21.3555621 396.345371,25.8234632 L396.345371,4.21891775 C396.345371,3.04315429 396.745062,2.07316399 397.544456,1.30891775 C398.34385,0.544671503 399.306069,0.162554113 400.431142,0.162554113 C401.556215,0.162554113 402.503631,0.559368326 403.273418,1.35300866 C404.043204,2.14664899 404.428092,3.10194247 404.428092,4.21891775 L404.428092,61.4489177 C404.428092,62.565893 404.043204,63.5064897 403.273418,64.2707359 C402.503631,65.0349822 401.556215,65.4170996 400.431142,65.4170996 C399.306069,65.4170996 398.34385,65.0349822 397.544456,64.2707359 C396.745062,63.5064897 396.345371,62.565893 396.345371,61.4489177 L396.345371,59.1561905 C392.022721,63.6240916 386.959969,65.8580087 381.15696,65.8580087 C377.485669,65.8580087 374.006877,64.9321088 370.720479,63.0802814 Z M389.994661,56.5548268 C392.392843,55.3496693 394.509725,53.7477156 396.345371,51.7489177 L396.345371,33.2307359 C394.509725,31.2319381 392.392843,29.6299844 389.994661,28.4248268 C387.596479,27.2196693 385.035496,26.6170996 382.311635,26.6170996 C377.929771,26.6170996 374.406569,27.9986009 371.741922,30.761645 C369.077275,33.5246891 367.744972,37.434044 367.744972,42.4898268 C367.744972,47.5456097 369.077275,51.4549645 371.741922,54.2180087 C374.406569,56.9810528 377.929771,58.3625541 382.311635,58.3625541 C385.035496,58.3625541 387.596479,57.7599844 389.994661,56.5548268 Z" id="Cupid" stroke="#3B3561" stroke-width="2" fill="#3B3561"></path>
                <path d="M1.87414772,63.8298268 C1.10436088,63.0655806 0.71947323,62.1249839 0.71947323,61.0080087 L0.71947323,7.48164502 C0.71947323,6.36466974 1.10436088,5.40937626 1.87414772,4.61573593 C2.64393456,3.8220956 3.5913503,3.42528139 4.71642338,3.42528139 L22.5694674,3.42528139 C29.3199058,3.42528139 35.0488104,4.90966048 39.756353,7.8784632 C44.4638956,10.8472659 48.0019013,14.6831367 50.3704762,19.3861905 C52.7390511,24.0892443 53.9233207,29.0273767 53.9233207,34.2007359 C53.9233207,39.3740951 52.7390511,44.3122276 50.3704762,49.0152814 C48.0019013,53.7183352 44.4638956,57.5542059 39.756353,60.5230087 C35.0488104,63.4918114 29.3199058,64.9761905 22.5694674,64.9761905 L4.71642338,64.9761905 C3.5913503,64.9761905 2.64393456,64.5940731 1.87414772,63.8298268 Z M21.5924351,57.4807359 C26.4480136,57.4807359 30.7113845,56.4960488 34.3826756,54.526645 C38.0539667,52.5572412 40.8962139,49.8236322 42.9095026,46.3257359 C44.9227912,42.8278397 45.9294204,38.7862134 45.9294204,34.2007359 C45.9294204,29.6152585 44.9227912,25.5736322 42.9095026,22.0757359 C40.8962139,18.5778397 38.0539667,15.8442306 34.3826756,13.8748268 C30.7113845,11.9054231 26.4480136,10.9207359 21.5924351,10.9207359 L8.80219464,10.9207359 L8.80219464,57.4807359 L21.5924351,57.4807359 Z M68.8679358,59.7293723 C64.8117513,55.6435943 62.7836895,49.8971366 62.7836895,42.4898268 C62.7836895,38.3158666 63.5534648,34.465299 65.0930385,30.9380087 C66.6326122,27.4107183 69.0011515,24.5595347 72.1987276,22.3843723 C75.3963037,20.2092099 79.3340004,19.121645 84.0119358,19.121645 C88.3937994,19.121645 92.1834624,20.1357258 95.3810385,22.1639177 C98.5786146,24.1921097 101.006367,26.8963251 102.66437,30.276645 C104.322372,33.656965 105.151361,37.3458675 105.151361,41.3434632 C105.151361,42.4604385 104.781277,43.4010351 104.041097,44.1652814 C103.300917,44.9295276 102.309092,45.311645 101.06559,45.311645 L70.955232,45.311645 C71.428947,49.4268171 72.9684976,52.6307245 75.57393,54.9234632 C78.1793624,57.2162019 81.8209916,58.3625541 86.498927,58.3625541 C88.9859307,58.3625541 91.1620262,58.1274049 93.0272789,57.6570996 C94.8925317,57.1867942 96.7133463,56.5107403 98.4897775,55.6289177 C98.9634925,55.3937651 99.4964138,55.2761905 100.088558,55.2761905 C101.035987,55.2761905 101.864976,55.5995206 102.575549,56.2461905 C103.286121,56.8928604 103.641402,57.7158824 103.641402,58.7152814 C103.641402,60.0086212 102.871627,61.0961861 101.332053,61.9780087 C99.0226926,63.2713485 96.7429735,64.2413388 94.4928273,64.8880087 C92.2426812,65.5346786 89.3412205,65.8580087 85.7883581,65.8580087 C78.5642047,65.8580087 72.9241203,63.8151503 68.8679358,59.7293723 Z M97.1574608,38.7861905 C96.9798177,35.90557 96.2248457,33.4952911 94.8925224,31.5552814 C93.560199,29.6152717 91.9170248,28.1896799 89.9629505,27.2784632 C88.0088762,26.3672465 86.0252245,25.911645 84.0119358,25.911645 C81.9986472,25.911645 80.0149955,26.3672465 78.0609212,27.2784632 C76.1068469,28.1896799 74.4784761,29.6152717 73.1757599,31.5552814 C71.8730437,33.4952911 71.1328751,35.90557 70.955232,38.7861905 L97.1574608,38.7861905 Z M129.910709,64.4911905 C129.022494,63.8739147 128.371145,63.0949831 127.956645,62.1543723 L112.501771,25.4707359 C112.205699,24.7652779 112.057665,24.1480113 112.057665,23.6189177 C112.057665,22.5019425 112.442553,21.546649 113.21234,20.7530087 C113.982127,19.9593683 114.929542,19.5625541 116.054615,19.5625541 C116.824402,19.5625541 117.549767,19.7830065 118.230733,20.2239177 C118.911698,20.664829 119.400209,21.2086115 119.696281,21.8552814 L133.285912,56.0698268 L146.875542,21.8552814 C147.171614,21.2086115 147.660125,20.664829 148.341091,20.2239177 C149.022056,19.7830065 149.747421,19.5625541 150.517208,19.5625541 C151.642281,19.5625541 152.589697,19.9593683 153.359483,20.7530087 C154.12927,21.546649 154.514158,22.5019425 154.514158,23.6189177 C154.514158,24.1480113 154.366124,24.7652779 154.070052,25.4707359 L138.615179,62.1543723 C138.200678,63.0949831 137.54933,63.8739147 136.661114,64.4911905 C135.772898,65.1084663 134.795876,65.4170996 133.730017,65.4170996 L132.841806,65.4170996 C131.775947,65.4170996 130.798925,65.1084663 129.910709,64.4911905 Z" id="Dev" fill="#A34170"></path>
                <g id="&lt;3" transform="translate(417.704998, 6.138528)" fill="#A34170">
                    <path d="M32.0211507,58.8962032 L2.65002627,38.7123237 C1.81575457,38.1109388 1.16552314,37.3028399 0.699312487,36.2880029 C0.233101831,35.2731659 0,34.1267932 0,32.8488503 L0,31.9467774 C0,30.6688345 0.233101831,29.5224618 0.699312487,28.5076248 C1.16552314,27.4927878 1.81575457,26.6846889 2.65002627,26.083304 L32.0211507,5.8994245 C32.4137492,5.67390516 32.8063417,5.56114719 33.1989402,5.56114719 C34.0332119,5.56114719 34.7325174,5.99338609 35.2968776,6.85787688 C35.8612379,7.72236766 36.1434138,8.79356843 36.1434138,10.0715113 C36.1434138,10.9735887 35.959386,11.8192735 35.591325,12.6085912 C35.2232639,13.3979088 34.7447918,13.9804917 34.1558941,14.3563573 L7.65563143,32.3978139 L34.1558941,50.4392704 C34.7447918,50.815136 35.2232639,51.3977189 35.591325,52.1870365 C35.959386,52.9763542 36.1434138,53.822039 36.1434138,54.7241164 C36.1434138,56.0020593 35.8612379,57.07326 35.2968776,57.9377508 C34.7325174,58.8022416 34.0332119,59.2344805 33.1989402,59.2344805 C32.8063417,59.2344805 32.4137492,59.1217225 32.0211507,58.8962032 Z" id="&lt;"></path>
                    <path d="M44.5585924,59.8664502 C43.8480199,59.5725094 43.2854918,59.1463015 42.8709912,58.5878139 C42.4564906,58.0293262 42.2492434,57.3385755 42.2492434,56.5155411 C42.2492434,55.5161422 42.5897209,54.6490296 43.2706862,53.9141775 C43.9516515,53.1793253 44.7954436,52.8119048 45.802088,52.8119048 C46.3350173,52.8119048 46.8975454,52.9294793 47.4896891,53.164632 C51.753124,54.869489 56.4605959,55.7219048 61.6122463,55.7219048 C66.2309674,55.7219048 70.124254,54.9723668 73.2922229,53.4732684 C76.4601918,51.97417 78.0441525,49.4610133 78.0441525,45.9337229 C78.0441525,38.5264132 71.5010625,34.8228139 58.4146862,34.8228139 L56.9935484,34.8228139 C55.9869041,34.8228139 55.1135052,34.4553933 54.3733255,33.7205411 C53.6331459,32.985689 53.2630616,32.1185764 53.2630616,31.1191775 C53.2630616,30.1197786 53.6331459,29.252666 54.3733255,28.5178139 C55.1135052,27.7829617 55.9869041,27.4155411 56.9935484,27.4155411 L57.5264751,27.4155411 C63.4479123,27.4155411 67.9777438,26.5190349 71.1161056,24.7259957 C74.2544673,22.9329564 75.8236246,20.2728315 75.8236246,16.7455411 C75.8236246,13.9237088 74.639355,11.6897918 72.2707801,10.0437229 C69.9022052,8.39765411 66.4086096,7.57463203 61.7898886,7.57463203 C56.8158813,7.57463203 52.2268363,8.54462233 48.0226158,10.484632 C47.4304721,10.7197847 46.8975508,10.8373593 46.4238358,10.8373593 C45.5356202,10.8373593 44.7658449,10.528726 44.1144868,9.91145022 C43.4631287,9.2941744 43.1374545,8.5152428 43.1374545,7.57463203 C43.1374545,6.22250406 43.7295894,5.22312012 44.9138768,4.57645022 C50.5984566,1.57825341 56.4605915,0.0791774892 62.5004575,0.0791774892 C69.3101103,0.0791774892 74.5801104,1.46067883 78.3106158,4.22372294 C82.0411213,6.98676706 83.906346,10.8961219 83.906346,15.9519048 C83.906346,20.0082887 82.8849134,23.1974992 80.8420176,25.519632 C78.7991218,27.8417649 76.2381386,29.5612931 73.1589912,30.6782684 C76.5342104,31.4425146 79.5392947,33.0444683 82.1743343,35.4841775 C84.8093739,37.9238867 86.1268739,41.5540019 86.1268739,46.374632 C86.1268739,51.7831439 83.9803851,55.9717384 79.6873431,58.9405411 C75.3943011,61.9093438 69.8726437,63.3937229 63.1222053,63.3937229 C56.54941,63.3937229 50.3616009,62.2179771 44.5585924,59.8664502 Z" id="3"></path>
                </g>
            </g>
            <path d="M16.843629,89.0228761 C14.3671113,87.2714784 13.128871,84.1055379 13.128871,79.5249594 L13.128871,58.2051677 C13.128871,56.7905773 12.959249,55.6117697 12.62,54.6687094 C12.280751,53.7256491 11.4326412,52.8331233 10.0756452,51.9911052 C8.71864913,51.1490871 6.61533683,50.4923229 3.76564516,50.0207927 C2.61219853,49.8187084 1.74712654,49.3640255 1.17040323,48.6567302 C0.593679912,47.949435 0.305322581,47.0569092 0.305322581,45.9791261 C0.305322581,44.9013429 0.593679912,44.0088171 1.17040323,43.3015219 C1.74712654,42.5942267 2.61219853,42.1395438 3.76564516,41.9374594 C6.61533683,41.4659293 8.71864913,40.809165 10.0756452,39.9671469 C11.4326412,39.1251288 12.280751,38.232603 12.62,37.2895427 C12.959249,36.3464825 13.128871,35.1676748 13.128871,33.7530844 L13.128871,12.4332927 C13.128871,7.85271429 14.3671113,4.68677373 16.843629,2.93537608 C19.3201468,1.18397844 22.8313214,0.308292749 27.3772581,0.308292749 L28.5985484,0.308292749 C29.5484456,0.308292749 30.3795932,0.661935046 31.0920161,1.36923025 C31.804439,2.07652545 32.1606452,2.90169081 32.1606452,3.84475108 C32.1606452,4.78781135 31.804439,5.61297671 31.0920161,6.32027192 C30.3795932,7.02756712 29.5484456,7.38120942 28.5985484,7.38120942 L27.0719355,7.38120942 C24.493643,7.38120942 22.84831,7.78537204 22.1358871,8.59370942 C21.4234642,9.40204679 21.0672581,10.4124534 21.0672581,11.6249594 L21.0672581,34.0562094 C21.0672581,39.7819325 18.0140628,43.7561983 11.9075806,45.9791261 C18.0140628,48.2020539 21.0672581,52.1763197 21.0672581,57.9020427 L21.0672581,80.3332927 C21.0672581,81.5457988 21.4234642,82.5562054 22.1358871,83.3645427 C22.84831,84.1728801 24.493643,84.5770427 27.0719355,84.5770427 L28.5985484,84.5770427 C29.5484456,84.5770427 30.3795932,84.930685 31.0920161,85.6379802 C31.804439,86.3452755 32.1606452,87.1704408 32.1606452,88.1135011 C32.1606452,89.0565614 31.804439,89.8817267 31.0920161,90.5890219 C30.3795932,91.2963171 29.5484456,91.6499594 28.5985484,91.6499594 L27.3772581,91.6499594 C22.8313214,91.6499594 19.3201468,90.7742737 16.843629,89.0228761 Z M597.541735,90.5890219 C596.829312,89.8817267 596.473106,89.0565614 596.473106,88.1135011 C596.473106,87.1704408 596.829312,86.3452755 597.541735,85.6379802 C598.254158,84.930685 599.085305,84.5770427 600.035203,84.5770427 L601.561815,84.5770427 C604.140108,84.5770427 605.785441,84.1728801 606.497864,83.3645427 C607.210287,82.5562054 607.566493,81.5457988 607.566493,80.3332927 L607.566493,57.9020427 C607.566493,52.1763197 610.619688,48.2020539 616.72617,45.9791261 C610.619688,43.7561983 607.566493,39.7819325 607.566493,34.0562094 L607.566493,11.6249594 C607.566493,10.4124534 607.210287,9.40204679 606.497864,8.59370942 C605.785441,7.78537204 604.140108,7.38120942 601.561815,7.38120942 L600.035203,7.38120942 C599.085305,7.38120942 598.254158,7.02756712 597.541735,6.32027192 C596.829312,5.61297671 596.473106,4.78781135 596.473106,3.84475108 C596.473106,2.90169081 596.829312,2.07652545 597.541735,1.36923025 C598.254158,0.661935046 599.085305,0.308292749 600.035203,0.308292749 L601.256493,0.308292749 C605.80243,0.308292749 609.313604,1.18397844 611.790122,2.93537608 C614.26664,4.68677373 615.50488,7.85271429 615.50488,12.4332927 L615.50488,33.7530844 C615.50488,35.1676748 615.674502,36.3464825 616.013751,37.2895427 C616.353,38.232603 617.20111,39.1251288 618.558106,39.9671469 C619.915102,40.809165 622.018414,41.4659293 624.868106,41.9374594 C626.021552,42.1395438 626.886624,42.5942267 627.463348,43.3015219 C628.040071,44.0088171 628.328428,44.9013429 628.328428,45.9791261 C628.328428,47.0569092 628.040071,47.949435 627.463348,48.6567302 C626.886624,49.3640255 626.021552,49.8187084 624.868106,50.0207927 C622.018414,50.4923229 619.915102,51.1490871 618.558106,51.9911052 C617.20111,52.8331233 616.353,53.7256491 616.013751,54.6687094 C615.674502,55.6117697 615.50488,56.7905773 615.50488,58.2051677 L615.50488,79.5249594 C615.50488,84.1055379 614.26664,87.2714784 611.790122,89.0228761 C609.313604,90.7742737 605.80243,91.6499594 601.256493,91.6499594 L600.035203,91.6499594 C599.085305,91.6499594 598.254158,91.2963171 597.541735,90.5890219 Z" id="{-}" fill="#3B3561"></path>
        </g>
    </g>
</svg>